<svg xmlns="http://www.w3.org/2000/svg" viewBox="0 0 512 512">
  <path fill="#051125" d="M256 0C114.6 0 0 114.6 0 256s114.6 256 256 256 256-114.6 256-256S397.4 0 256 0z"/>
  <path fill="#ffeb3b" d="M160 112c-26.5 0-48 21.5-48 48 0 20.2 12.6 37.4 30.4 44.3l37.2 124.2L123.3 400.9c-4.4 7.4-4.8 16.5-1 24.3s11.5 12.8 20.3 12.8H369.3c8.8 0 16.5-5 20.3-12.8s3.4-16.9-1-24.3l-56.3-72.3 37.2-124.2c17.8-6.9 30.4-24.1 30.4-44.3 0-26.5-21.5-48-48-48s-48 21.5-48 48c0 20.2 12.6 37.4 30.4 44.3l-37.2 124.2H258.9l-37.2-124.2c17.8-6.9 30.4-24.1 30.4-44.3 0-26.5-21.5-48-48-48z"/>
</svg>
